PathFileType	4	(X/Y/Z)	/Users/niels/Desktop/University/Third Semester/Perception and Action/Exam/Gymnastics Motion Tracking/Code for Gym Tracking/Analyzed Data/Webcam_Backflip/id3_2_baseline_Sports2D/id3_2_baseline_Sports2D_px_person00.trc
DataRate	CameraRate	NumFrames	NumMarkers	Units	OrigDataRate	OrigDataStartFrame	OrigNumFrames
29.8125	29.8125	9	22	m	29.8125	40	160
Frame#	Time	Hip			RHip			RKnee			RAnkle			RBigToe			RSmallToe			RHeel			LHip			LKnee			LAnkle			LBigToe			LSmallToe			LHeel			Neck			Head			Nose			RShoulder			RElbow			RWrist			LShoulder			LElbow			LWrist		
		X1	Y1	Z1	X2	Y2	Z2	X3	Y3	Z3	X4	Y4	Z4	X5	Y5	Z5	X6	Y6	Z6	X7	Y7	Z7	X8	Y8	Z8	X9	Y9	Z9	X10	Y10	Z10	X11	Y11	Z11	X12	Y12	Z12	X13	Y13	Z13	X14	Y14	Z14	X15	Y15	Z15	X16	Y16	Z16	X17	Y17	Z17	X18	Y18	Z18	X19	Y19	Z19	X20	Y20	Z20	X21	Y21	Z21	X22	Y22	Z22
40	1.341719077568134	0.9675034875914034	-0.5803715303969269	0.0	0.9680700079827796	-0.5808247702846191	0.0	1.0495300887304722	-0.6617666443470317	0.0	0.9935180099886497	-0.7605419178162106	0.0	1.0366921422305273	-0.7822236613708375	0.0	1.0250985293250148	-0.7869891939828536	0.0	0.9791768667667441	-0.7719663197936669	0.0	0.9747751614003625	-0.5776872909271673	0.0	1.0498016350485588	-0.6537278917280008	0.0	0.9998132296052861	-0.7499933356897331	0.0	1.0412328537448252	-0.77575208664961	0.0	1.0379236969751005	-0.7721505838408245	0.0	0.9836877849929113	-0.7609575618378738	0.0	1.0709713001634766	-0.4782156684177154	0.0	1.1283520064685375	-0.4254448276291358	0.0	1.125268156117774	-0.4566009224098956	0.0	1.057739347862322	-0.4900614515617896	0.0	0.9840721455127978	-0.4957247860876638	0.0	0.9195175505403725	-0.5181078796370453	0.0	1.057912731025203	-0.4833537355978211	0.0	0.9846382406293578	-0.49543352650317957	0.0	0.9329316931494939	-0.5140111662854271	0.0
41	1.3752620545073373	0.9705469712490832	-0.596426866379354	0.0	0.9719738333115714	-0.596445725058799	0.0	1.0505229561120548	-0.680605307194146	0.0	0.993153139373007	-0.7769170504739313	0.0	1.035952467789583	-0.7969682353676666	0.0	1.0250287601945043	-0.8024828619871222	0.0	0.9794664297218204	-0.7883032735656131	0.0	0.9775579089664124	-0.5933270464278348	0.0	1.0493608104256598	-0.6724269704665727	0.0	0.9971488185074433	-0.767400382219281	0.0	1.0425378685658926	-0.7910103219553565	0.0	1.038725213512799	-0.7894860083402818	0.0	0.98277613779798	-0.7773764538764709	0.0	1.0688629217588417	-0.48664066086581087	0.0	1.1203479286676579	-0.43121548417405303	0.0	1.1203757228669216	-0.46244332132885657	0.0	1.055232841971477	-0.5016948463818928	0.0	0.9916869994856105	-0.5267266601799402	0.0	0.9417320169965656	-0.5637986896567366	0.0	1.054811910777571	-0.4935510182643204	0.0	0.9927372843059339	-0.5237738264220481	0.0	0.9544297106707358	-0.555199584380641	0.0
42	1.4088050314465406	0.9742474461772178	-0.6133153381660796	0.0	0.976262654016835	-0.6130635957197422	0.0	1.04880726209346	-0.7029952109760439	0.0	0.9923808152017515	-0.7974199290886135	0.0	1.034529457632988	-0.8160152785003548	0.0	1.0245963709802608	-0.8225642542905884	0.0	0.9792899528318032	-0.8091374968091604	0.0	0.9807739053826604	-0.6102378438653623	0.0	1.0464608144271346	-0.6953350901057876	0.0	0.9939267430696729	-0.7891317072411852	0.0	1.0433913699604949	-0.8102640848510653	0.0	1.0385160414294627	-0.8114206453247462	0.0	0.980794084908038	-0.7988044618675743	0.0	1.064936684218944	-0.4942385768561639	0.0	1.1095114593759456	-0.435441232620619	0.0	1.1133001583256377	-0.46674771204436094	0.0	1.0517624003533679	-0.5124380198817243	0.0	1.0056230075160228	-0.5561274517300815	0.0	0.9769506286303429	-0.6035695683433054	0.0	1.0509162644521448	-0.5032755345192775	0.0	1.007453712579016	-0.5502587503329057	0.0	0.9883243055586115	-0.5901753044770691	0.0
43	1.442348008385744	0.9787106953420615	-0.6293136486398585	0.0	0.9807761002521885	-0.6291046189756864	0.0	1.0447181840875064	-0.726001042905111	0.0	0.9913505606976444	-0.8192740134873985	0.0	1.0325523957555554	-0.8370481321182169	0.0	1.0237470802021684	-0.8446212197367584	0.0	0.9785970451823683	-0.8319946532259861	0.0	0.9845800255337234	-0.6267721121184794	0.0	1.0416755410929597	-0.7194145966185741	0.0	0.9910005488972086	-0.8123143347127174	0.0	1.0435546710292258	-0.8315344315882586	0.0	1.0371227022818588	-0.8350546414801414	0.0	0.9781161350909469	-0.8229461569033779	0.0	1.0596482737917654	-0.5004771034424219	0.0	1.096116520644035	-0.437650246440031	0.0	1.1044417558026607	-0.4690341838296815	0.0	1.0476964212866373	-0.5212390842698167	0.0	1.025794210982783	-0.5779859089416083	0.0	1.0232398419474062	-0.6275220681211909	0.0	1.0468784887990137	-0.5115983608937837	0.0	1.02833979345354	-0.5692496745635744	0.0	1.031647751658383	-0.6098753111154834	0.0
44	1.4758909853249473	0.9843090159635658	-0.6424167792290538	0.0	0.9859655121441987	-0.6424869654105281	0.0	1.0391568355236627	-0.7460071713201628	0.0	0.990195539205064	-0.8390378326160471	0.0	1.029925066780898	-0.8568870148201188	0.0	1.0222555430144378	-0.8648760091046882	0.0	0.9774432620837611	-0.8534538685940918	0.0	0.9893409773670809	-0.6406249503605609	0.0	1.0357755203022572	-0.74074373972939	0.0	0.9888302063490375	-0.8333856855042143	0.0	1.042568313855375	-0.8519593111134255	0.0	1.0342344163881767	-0.8566234889256773	0.0	0.9751604293366317	-0.8462229692656393	0.0	1.0540295505800246	-0.5044196541366193	0.0	1.0808698943826138	-0.43726863693221757	0.0	1.094609967735134	-0.46858948465460143	0.0	1.0439539147991552	-0.5267268723268804	0.0	1.049928603322367	-0.5869804539316277	0.0	1.0743703379153613	-0.6283658933571532	0.0	1.0434653214519536	-0.5170320733198788	0.0	1.0523855995830764	-0.5754694712430323	0.0	1.077128801171548	-0.6073858857685931	0.0
45	1.5094339622641506	0.9916155338817806	-0.6503184711231269	0.0	0.9928286281060609	-0.6506836178346574	0.0	1.033432529824261	-0.7595091258283864	0.0	0.9890538183198562	-0.8534101143818327	0.0	1.0262730197734733	-0.8720300947931227	0.0	1.019801619371435	-0.8795370141864977	0.0	0.9761050827214581	-0.869582114609861	0.0	0.9954756253417762	-0.6490418986182349	0.0	1.0298318389980106	-0.755457003897999	0.0	0.987494019016944	-0.8488698463493756	0.0	1.039808864700917	-0.8679566203995237	0.0	1.0296262449012585	-0.8723023635494699	0.0	0.9725163492478754	-0.8640967885074676	0.0	1.0491122486569406	-0.5046540933013077	0.0	1.0647492592699936	-0.4335215302706375	0.0	1.0846674035746589	-0.46434921945485746	0.0	1.041563137057972	-0.5270425465482477	0.0	1.073915586544362	-0.5797690285590849	0.0	1.121139264199749	-0.6038978069077473	0.0	1.0410878953740663	-0.517559131652449	0.0	1.0746843026365185	-0.5657701508717765	0.0	1.1151345440423628	-0.5807970111176765	0.0
46	1.542976939203354	1.0012766533543973	-0.6506754182909743	0.0	1.0025044123616464	-0.6511291073683969	0.0	1.0291687490746526	-0.7638394576639861	0.0	0.988234923439308	-0.8597795830933941	0.0	1.0214233904625094	-0.8795356623597499	0.0	1.016223593753386	-0.886043135456715	0.0	0.975107541159819	-0.87689517178374	0.0	1.0034054003747181	-0.6494183988082016	0.0	1.0252466092237074	-0.7606468155437287	0.0	0.9870389485447122	-0.8560575975424065	0.0	1.0349811834361557	-0.8762363366396002	0.0	1.023540992553796	-0.8792462408075379	0.0	0.970881413073128	-0.8724596220486434	0.0	1.0453659572213791	-0.4996251917443863	0.0	1.0486227219764372	-0.42559435069085005	0.0	1.0750726628689427	-0.4551371512586195	0.0	1.0409612164112918	-0.5201541103917292	0.0	1.093210293412132	-0.555700692151344	0.0	1.1546518869706168	-0.5574996582792289	0.0	1.0394882469720899	-0.5112340562064955	0.0	1.0904821911626523	-0.5403204064744561	0.0	1.1374338663125374	-0.5342258667148767	0.0
47	1.5765199161425574	1.0137480716285854	-0.6417503597513868	0.0	1.0156510984041902	-0.6419550701635608	0.0	1.0283269753308453	-0.7576402703131856	0.0	0.9884252485067903	-0.856424865235246	0.0	1.0160504519626878	-0.8778627308075551	0.0	1.0119357744721034	-0.8832908015447571	0.0	0.9752023856275128	-0.8734226532023126	0.0	1.0135166371980762	-0.6400649463846922	0.0	1.023755508365551	-0.7548844638132192	0.0	0.9878062457190069	-0.8532653583672531	0.0	1.0286217913009865	-0.8750724623803356	0.0	1.0168536342747252	-0.8762954334403609	0.0	0.9709277899577196	-0.8691804111029972	0.0	1.0425974054876161	-0.48824849998477543	0.0	1.0328464542371028	-0.41307673668692824	0.0	1.0656634739674764	-0.44019700360246633	0.0	1.0416802567822778	-0.5048204753049443	0.0	1.1045149752455634	-0.5169705281778394	0.0	1.1696088352368892	-0.49638437529303386	0.0	1.0380023834906122	-0.49714157905543216	0.0	1.0973262391312433	-0.502338881926382	0.0	1.1408130656512736	-0.47570285231912535	0.0
48	1.6100628930817606	1.028941768881549	-0.6229588316779885	0.0	1.0319552860108079	-0.6226018403604994	0.0	1.033108267633612	-0.7409508840497411	0.0	0.9907870572603553	-0.842420096880397	0.0	1.0116399643052303	-0.8667183140139786	0.0	1.0081355140738049	-0.8709707652269701	0.0	0.9774147950028548	-0.8586364140901798	0.0	1.025973728569578	-0.6206861273760873	0.0	1.0273903282455314	-0.7382986552587175	0.0	0.9905904628139662	-0.8397044165544308	0.0	1.0220353724633466	-0.8643234792617553	0.0	1.0109472734892837	-0.8636591597727362	0.0	0.9733887598410808	-0.8540574704597466	0.0	1.0402638365202266	-0.47039942839416526	0.0	1.0171934578797726	-0.396404844472078	0.0	1.0558260720999757	-0.41961844285370764	0.0	1.0427034379960076	-0.48146731767785717	0.0	1.1068520210776116	-0.46833849249123505	0.0	1.1656382264330738	-0.4290640854586022	0.0	1.0361704815137356	-0.4759032427515745	0.0	1.095803959980625	-0.45673915709736235	0.0	1.1280823477477957	-0.4136260861445736	0.0
